<svg xmlns="http://www.w3.org/2000/svg" viewBox="0 0 122.67 124.82"><defs><style>.cls-1{fill:#fc893c;}.cls-2{fill:#f9d423;}.cls-3{fill:#ff4e50;}</style></defs><g id="Layer_2" data-name="Layer 2"><g id="OBJECTS"><path class="cls-1" d="M74.74,17.26a.39.39,0,0,1-.3-.13.42.42,0,0,1,0-.6L87.59,3.38a.42.42,0,0,1,.6,0,.43.43,0,0,1,0,.61L75,17.13A.39.39,0,0,1,74.74,17.26Z"/><path class="cls-1" d="M80.39,21.48a1.29,1.29,0,0,1-.91-.38,1.27,1.27,0,0,1,0-1.82l5.68-5.69A1.29,1.29,0,0,1,87,15.42L81.3,21.1A1.29,1.29,0,0,1,80.39,21.48Z"/><path class="cls-1" d="M85.31,25.27A.9.9,0,0,1,84.7,25a.88.88,0,0,1,0-1.22l9.94-9.94a.88.88,0,0,1,1.22,0,.86.86,0,0,1,0,1.22L85.92,25A.9.9,0,0,1,85.31,25.27Z"/><path class="cls-1" d="M40.47,124.82a.39.39,0,0,1-.3-.13.42.42,0,0,1,0-.6l13.14-13.15a.43.43,0,0,1,.61,0,.42.42,0,0,1,0,.6L40.77,124.69A.39.39,0,0,1,40.47,124.82Z"/><path class="cls-1" d="M42.28,114.86a1.29,1.29,0,0,1-.91-2.2L47.06,107a1.29,1.29,0,1,1,1.82,1.82l-5.69,5.69A1.29,1.29,0,0,1,42.28,114.86Z"/><path class="cls-1" d="M33.11,114.46a.85.85,0,0,1-.61-.25.85.85,0,0,1,0-1.21l9.94-9.94a.86.86,0,1,1,1.21,1.21l-9.94,9.94A.82.82,0,0,1,33.11,114.46Z"/><path class="cls-2" d="M58.71,122.1a.3.3,0,0,1-.23-.11L.65,58.94a.32.32,0,0,1,0-.46L63.73.66a.33.33,0,0,1,.46,0L122,63.73a.33.33,0,0,1,0,.46L58.94,122A.33.33,0,0,1,58.71,122.1ZM1.36,58.74l57.38,62.57,62.57-57.38L63.93,1.36Z"/><path class="cls-3" d="M65.35,122.67a1,1,0,0,1-.56-.24L.34,66.17a1,1,0,0,1-.1-1.38L56.5.33A1,1,0,0,1,57.88.24L122.34,56.5a1,1,0,0,1,.09,1.38L66.17,122.34A1,1,0,0,1,65.35,122.67Zm-63-57.33,63,55,55-63-63-55Z"/><path class="cls-1" d="M52,121.76a.66.66,0,0,1-.52-.27L1,52.38a.64.64,0,0,1,.14-.91L70.29,1a.65.65,0,0,1,.91.14l50.43,69.11a.64.64,0,0,1-.14.91L52.38,121.63A.63.63,0,0,1,52,121.76ZM2.47,52.14l49.67,68.05,68.05-49.66-49.66-68Z"/><rect class="cls-1" x="34.97" y="114.7" width="2.58" height="2.58" transform="translate(143.93 172.35) rotate(134.98)"/><rect class="cls-1" x="33.14" y="33.51" width="2.58" height="2.58" transform="translate(83.38 35.06) rotate(135.01)"/><rect class="cls-1" x="78.2" y="4.52" width="2.58" height="2.58" transform="translate(139.8 -46.31) rotate(134.99)"/></g></g></svg>