<svg xmlns="http://www.w3.org/2000/svg" viewBox="0 0 135 122.08"><defs><style>.cls-1{fill:#db85b3;}.cls-2{fill:#fbd3e9;}.cls-3{fill:#bb377d;}</style></defs><g id="Layer_2" data-name="Layer 2"><g id="OBJECTS"><path class="cls-1" d="M130.55,82.37a.39.39,0,0,1-.18,0l-11.06-5.25a.44.44,0,0,1-.21-.58.44.44,0,0,1,.58-.2l11.06,5.25a.43.43,0,0,1,.2.57A.42.42,0,0,1,130.55,82.37Z"/><path class="cls-1" d="M131.63,89.41a1.23,1.23,0,0,1-.55-.13l-14.81-7a1.29,1.29,0,1,1,1.11-2.33l14.8,7a1.29,1.29,0,0,1-.55,2.45Z"/><path class="cls-1" d="M123.21,90.73a.84.84,0,0,1-.37-.09l-8.51-4a.84.84,0,0,1-.4-1.14.86.86,0,0,1,1.14-.41l8.51,4a.86.86,0,0,1-.37,1.64Z"/><path class="cls-1" d="M134.81,85.07h0a.87.87,0,0,0-.36.37,1.33,1.33,0,0,1-.18.31c-.06.07-.11.09-.16.08a.17.17,0,0,1-.18,0,1.27,1.27,0,0,1-.34-.12.86.86,0,0,0-.51-.06,0,0,0,0,1,0,0,.82.82,0,0,0-.37-.35c-.29-.14-.42-.25-.39-.35h0c-.06,0-.07-.12,0-.27a1.12,1.12,0,0,1,.1-.24s0-.07,0-.11a.76.76,0,0,0,0-.4h0v0a.71.71,0,0,0,.36-.37c.14-.29.25-.42.35-.39s.22,0,.51.08a.77.77,0,0,0,.51.06,0,0,0,0,1,0,0,.88.88,0,0,0,.38.35c.29.14.41.25.38.35h0c.06,0,.07.13,0,.27a1.86,1.86,0,0,1-.09.24l0,.11a.92.92,0,0,0,0,.4h0Z"/><path class="cls-1" d="M15.67,24.18h-.1L3.65,21.36a.44.44,0,0,1-.32-.52.43.43,0,0,1,.52-.32l11.92,2.81a.44.44,0,0,1,.32.52A.44.44,0,0,1,15.67,24.18Z"/><path class="cls-1" d="M16.39,20a1.53,1.53,0,0,1-.3,0L1,16.38a1.29,1.29,0,0,1,.59-2.51l15.1,3.56A1.29,1.29,0,0,1,16.39,20Z"/><path class="cls-1" d="M18.43,14.67l-.2,0L9.07,12.48a.86.86,0,1,1,.39-1.67L18.63,13a.86.86,0,0,1,.64,1A.87.87,0,0,1,18.43,14.67Z"/><path class="cls-2" d="M63.78,121.92a.31.31,0,0,1-.2-.07,38.66,38.66,0,0,0-23-7.68c-7.28,0-12.9-.55-16.7-1.63-4-1.13-6.11-2.91-6.28-5.27-4.64-.31-6.9-7.84-6.9-23A38.68,38.68,0,0,0,3,61.25a.32.32,0,0,1,0-.41,38.77,38.77,0,0,0,7.67-23.05c0-7.28.55-12.9,1.63-16.7,1.14-4,2.91-6.11,5.27-6.28.31-4.64,7.84-6.9,23-6.9a38.62,38.62,0,0,0,23-7.67.32.32,0,0,1,.41,0A38.72,38.72,0,0,0,87,7.91c15.14,0,22.67,2.26,23,6.9,4.64.32,6.9,7.84,6.9,23a38.59,38.59,0,0,0,7.68,23.05.32.32,0,0,1,0,.41,38.61,38.61,0,0,0-7.68,23c0,15.14-2.26,22.67-6.9,23-.31,4.64-7.84,6.9-23,6.9a38,38,0,0,0-23,7.68A.33.33,0,0,1,63.78,121.92ZM3.62,61a39.56,39.56,0,0,1,7.67,23.25c0,14.84,2.21,22.36,6.57,22.36a.31.31,0,0,1,.22.09.32.32,0,0,1,.09.23c0,2.19,2,3.86,5.84,5s9.3,1.6,16.52,1.6a39.61,39.61,0,0,1,23.25,7.66A39,39,0,0,1,87,113.54c14.84,0,22.36-2.21,22.36-6.57a.32.32,0,0,1,.32-.32c4.36,0,6.57-7.52,6.57-22.36A39.59,39.59,0,0,1,124,61a33.41,33.41,0,0,1-3.77-6.2,39.91,39.91,0,0,1-3.9-17c0-14.83-2.21-22.36-6.57-22.36a.31.31,0,0,1-.32-.31c0-4.36-7.52-6.57-22.36-6.57A39.59,39.59,0,0,1,63.77.88a34.06,34.06,0,0,1-6.2,3.76,39.89,39.89,0,0,1-17,3.91c-14.83,0-22.36,2.21-22.36,6.57a.31.31,0,0,1-.31.31c-4.36,0-6.57,7.53-6.57,22.36A39.52,39.52,0,0,1,3.62,61Z"/><path class="cls-3" d="M71.33,122.08a1,1,0,0,1-.51-.15A37.74,37.74,0,0,0,52.07,117a36.18,36.18,0,0,0-4.65.3,94,94,0,0,1-11.4.83c-7.64,0-11.85-1.58-12.84-4.81-4.76-.27-8-7.63-9.84-22.5A38.13,38.13,0,0,0,3.05,69.29a1,1,0,0,1-.16-1.21,38.06,38.06,0,0,0,4.65-23.4c-.92-7.29-1.08-13-.47-16.95.63-4.12,2.12-6.56,4.44-7.29.13-2.42,2.13-4.47,6-6.1,3.68-1.57,9.24-2.83,16.53-3.74A38.09,38.09,0,0,0,55.53.31h0a.6.6,0,0,1,.08-.08A1,1,0,0,1,56.75.15,37.63,37.63,0,0,0,75.49,5.09a38.23,38.23,0,0,0,4.66-.29A93.84,93.84,0,0,1,91.54,4c7.64,0,11.86,1.57,12.84,4.8,4.76.27,8,7.64,9.85,22.5a38,38,0,0,0,10.29,21.52h0l.08.08a1,1,0,0,1,.07,1.14A38.1,38.1,0,0,0,120,77.41c1.87,14.87.57,22.82-4,24.23-.13,2.43-2.13,4.47-6,6.11s-9.25,2.82-16.54,3.74A37.92,37.92,0,0,0,72,121.78.94.94,0,0,1,71.33,122.08Zm-19.26-7a39.8,39.8,0,0,1,19.11,4.84A39.86,39.86,0,0,1,93.32,109.6c7.11-.89,12.5-2.11,16-3.61s5-3.13,4.79-5a1,1,0,0,1,.19-.7,1,1,0,0,1,.63-.36c3.8-.48,4.93-8.4,3.19-22.3a39.68,39.68,0,0,1,4.54-24,46.5,46.5,0,0,1-4.25-5.44,40.73,40.73,0,0,1-6.09-16.68c-2.28-18.13-6.13-20.84-8.23-20.84l-.37,0a.94.94,0,0,1-1.06-.82c-.42-3.31-6.29-4-11.14-4a90.22,90.22,0,0,0-11.16.82,39.87,39.87,0,0,1-4.89.3A39.78,39.78,0,0,1,56.37,2.15a45.75,45.75,0,0,1-5.44,4.24,40.44,40.44,0,0,1-16.68,6.09c-7.12.9-12.51,2.11-16,3.61s-5,3.13-4.79,5a1,1,0,0,1-.82,1.07c-3.8.47-4.93,8.39-3.18,22.29a39.76,39.76,0,0,1-4.54,24A39.79,39.79,0,0,1,15.22,90.58c2.28,18.13,6.14,20.83,8.23,20.83h0a2.3,2.3,0,0,0,.37,0,1,1,0,0,1,1.07.83c.41,3.3,6.28,4,11.13,4a92,92,0,0,0,11.16-.81A38.11,38.11,0,0,1,52.07,115.09Z"/><path class="cls-1" d="M55.28,121.64a.62.62,0,0,1-.47-.21A38.33,38.33,0,0,0,33.26,110.7c-7.24-1-12.76-2.37-16.39-4-3.8-1.69-5.71-3.75-5.68-6.15-2.3-.64-3.76-3-4.32-7.16-.54-3.94-.3-9.61.73-16.85A38.3,38.3,0,0,0,3.28,52.88a.64.64,0,0,1,.12-.81A38.46,38.46,0,0,0,14.13,30.52c2.1-14.85,5.4-22.07,10.07-22.07h.05c.84-3.1,4.73-4.6,11.85-4.6a89.58,89.58,0,0,1,12.16,1,37.53,37.53,0,0,0,5.29.37A37.73,37.73,0,0,0,71.94.54h0L72,.49a.62.62,0,0,1,.71.17A38.51,38.51,0,0,0,94.3,11.39c14.91,2.11,22.14,5.42,22.07,10.12,4.53,1.24,5.71,9.11,3.59,24a38.41,38.41,0,0,0,4.32,23.68.62.62,0,0,1-.11.81,38.37,38.37,0,0,0-10.73,21.55c-2.11,14.85-5.4,22.07-10.08,22.07h0c-.83,3.1-4.72,4.61-11.85,4.61a88.31,88.31,0,0,1-12.16-1,38.86,38.86,0,0,0-5.29-.37,37.91,37.91,0,0,0-18.39,4.69h0l0,0A.68.68,0,0,1,55.28,121.64Zm-50.66-69A39.36,39.36,0,0,1,8.86,76.74c-1,7.12-1.26,12.67-.74,16.5s1.82,5.91,3.84,6.2a.62.62,0,0,1,.41.24.64.64,0,0,1,.13.48c-.29,2,1.35,3.83,4.89,5.4s8.92,2.87,16,3.88a39.38,39.38,0,0,1,22,10.77A30.27,30.27,0,0,1,60.27,118,40.5,40.5,0,0,1,74,115.58a38.39,38.39,0,0,1,5.47.39,88.63,88.63,0,0,0,12,1c6.73,0,10.33-1.38,10.72-4.1a.62.62,0,0,1,.24-.42.67.67,0,0,1,.47-.12l.47,0c2.67,0,6.36-3.64,8.82-21A39.35,39.35,0,0,1,123,69.4a39.24,39.24,0,0,1-4.26-24.05c2-14.28,1-22.13-3.1-22.7a.63.63,0,0,1-.54-.72c.57-4.05-6.67-7.26-20.95-9.29a39.27,39.27,0,0,1-22-10.77,42.55,42.55,0,0,1-4.87,2.2A40.74,40.74,0,0,1,53.55,6.5a40.12,40.12,0,0,1-5.47-.38,86.9,86.9,0,0,0-12-1c-6.73,0-10.33,1.37-10.71,4.1a.64.64,0,0,1-.72.54,2.49,2.49,0,0,0-.47,0c-2.66,0-6.36,3.64-8.82,21A39.34,39.34,0,0,1,4.62,52.66Z"/><path class="cls-1" d="M4,11.94H4a.86.86,0,0,0-.18-.48,2.17,2.17,0,0,1-.21-.29c0-.09,0-.14,0-.18a.19.19,0,0,1,0-.18,1.45,1.45,0,0,1,.25-.25.79.79,0,0,0,.27-.44h0a.83.83,0,0,0,.48-.19c.24-.2.4-.27.47-.2h0c.06,0,.15,0,.26.1a1.72,1.72,0,0,1,.17.19l.08.08a.75.75,0,0,0,.36.19H6s0,0,0,0a.79.79,0,0,0,.19.47c.2.25.27.41.2.48s0,.23-.29.43a.87.87,0,0,0-.27.44h0a.79.79,0,0,0-.48.19c-.25.2-.41.27-.48.2h0c-.06,0-.14,0-.25-.1a1.11,1.11,0,0,1-.18-.19.6.6,0,0,0-.08-.08A.75.75,0,0,0,4,12H4Z"/><path class="cls-1" d="M64.87,10.52h0a.81.81,0,0,0-.19-.48,1.18,1.18,0,0,1-.2-.3q-.06-.12,0-.18s0-.1,0-.17a1.57,1.57,0,0,1,.26-.26A.82.82,0,0,0,65,8.69v0a.81.81,0,0,0,.48-.18c.25-.21.41-.27.48-.2h0c.06,0,.14,0,.25.09a1.66,1.66,0,0,1,.18.19l.08.09a.88.88,0,0,0,.36.19h0a.86.86,0,0,0,.18.48c.21.25.28.4.21.48s0,.22-.29.43a.75.75,0,0,0-.27.43h0a.83.83,0,0,0-.48.19c-.24.2-.4.27-.47.2h0c-.06,0-.14,0-.26-.09l-.18-.19-.07-.09a.88.88,0,0,0-.36-.19h0Z"/></g></g></svg>