<svg xmlns="http://www.w3.org/2000/svg" viewBox="0 0 136.25 120.36"><defs><style>.cls-1{fill:#db85b3;}.cls-2{fill:#bb377d;}.cls-3{fill:#fbd3e9;}</style></defs><g id="Layer_2" data-name="Layer 2"><g id="OBJECTS"><path class="cls-1" d="M15.24,26.26h-.1L3.22,23.44a.43.43,0,1,1,.2-.84l11.92,2.81a.44.44,0,0,1,.32.52A.44.44,0,0,1,15.24,26.26Z"/><path class="cls-1" d="M14.69,21.65a1.53,1.53,0,0,1-.3,0L1,18.46A1.29,1.29,0,0,1,1.58,16L15,19.11a1.29,1.29,0,0,1-.29,2.54Z"/><path class="cls-1" d="M16.25,16.26l-.2,0L9,14.56a.86.86,0,0,1,.39-1.67l7.1,1.67a.86.86,0,0,1,.64,1A.87.87,0,0,1,16.25,16.26Z"/><rect class="cls-1" x="3.58" y="9.5" width="3.16" height="3.16" rx="0.59" transform="translate(-2.91 1.9) rotate(-16.33)"/><path class="cls-1" d="M133.11,65.91H133l-11.92-2.81a.43.43,0,1,1,.2-.83l11.92,2.81a.43.43,0,0,1,.32.51A.44.44,0,0,1,133.11,65.91Z"/><path class="cls-1" d="M135,72.59a1,1,0,0,1-.3,0L121.27,69.4a1.3,1.3,0,0,1-1-1.55,1.27,1.27,0,0,1,1.55-1l13.4,3.16a1.29,1.29,0,0,1-.3,2.54Z"/><path class="cls-1" d="M127.6,75.64l-.2,0-7.1-1.68a.86.86,0,0,1-.64-1,.87.87,0,0,1,1-.64l7.09,1.67a.87.87,0,0,1,.64,1A.85.85,0,0,1,127.6,75.64Z"/><path class="cls-2" d="M101.84,117.27h0l-1,0-73.53-4.11A18.3,18.3,0,0,1,10.06,93.87l4.11-73.53A18.26,18.26,0,0,1,33.43,3.12L107,7.24A18.26,18.26,0,0,1,124.18,26.5L120.06,100A18.26,18.26,0,0,1,101.84,117.27ZM32.39,5.05a16.3,16.3,0,0,0-16.26,15.4L12,94a16.32,16.32,0,0,0,15.37,17.19l73.53,4.12a16.32,16.32,0,0,0,17.2-15.37l4.11-73.53a16.31,16.31,0,0,0-15.37-17.2L33.32,5.08Q32.85,5,32.39,5.05Z"/><path class="cls-1" d="M94.7,120.13,22,108.34A18,18,0,0,1,7.17,87.76L19,15.07A18,18,0,0,1,39.54.23L112.23,12A18,18,0,0,1,127.07,32.6l-11.79,72.7A18,18,0,0,1,94.7,120.13ZM39.33,1.52A16.65,16.65,0,0,0,20.24,15.28L8.46,88a16.65,16.65,0,0,0,13.75,19.09l72.7,11.78A16.65,16.65,0,0,0,114,105.09l11.79-72.7A16.65,16.65,0,0,0,112,13.31Z"/><path class="cls-3" d="M33,117a17.61,17.61,0,0,1-17.76-16.43L10.33,27.1A17.61,17.61,0,0,1,26.72,8.35l73.47-5A17.61,17.61,0,0,1,119,19.78l5,73.48A17.64,17.64,0,0,1,107.52,112L34,117C33.71,117,33.37,117,33,117ZM101.2,4l-1,0L26.76,9A17,17,0,0,0,11,27.06l4.95,73.48A17,17,0,0,0,34,116.32l73.48-4.95A17,17,0,0,0,123.26,93.3l-5-73.47A16.94,16.94,0,0,0,101.2,4Z"/><rect class="cls-1" x="130.01" y="75.85" width="3.16" height="3.16" rx="0.59" transform="translate(-16.47 40.17) rotate(-16.35)"/><rect class="cls-1" x="103.51" y="17.78" width="3.16" height="3.16" rx="0.59" transform="translate(-1.2 30.37) rotate(-16.35)"/></g></g></svg>