<svg xmlns="http://www.w3.org/2000/svg" viewBox="0 0 147.79 118.2"><defs><style>.cls-1{fill:#fc893c;}.cls-2{fill:#ff4e50;}.cls-3{fill:#f9d423;}</style></defs><g id="Layer_2" data-name="Layer 2"><g id="OBJECTS"><path class="cls-1" d="M147.36,95.57h-.1l-18.08-4.35a.43.43,0,1,1,.2-.84l18.08,4.36a.43.43,0,0,1-.1.84Z"/><path class="cls-1" d="M138.91,101.34a1.53,1.53,0,0,1-.3,0l-9.24-2.23a1.29,1.29,0,1,1,.6-2.51l9.24,2.23a1.29,1.29,0,0,1-.3,2.54Z"/><path class="cls-1" d="M145.31,108.71a.65.65,0,0,1-.2,0l-16.47-4a.86.86,0,0,1,.4-1.67l16.47,4a.86.86,0,0,1-.2,1.69Z"/><rect class="cls-1" x="139.88" y="87.8" width="2.58" height="2.58" transform="translate(257.55 208.76) rotate(-166.46)"/><path class="cls-1" d="M20.54,27.4l-.13,0L.3,21.12a.43.43,0,0,1,.26-.82l20.11,6.26a.43.43,0,0,1-.13.84Z"/><path class="cls-1" d="M20.38,21.84a1.23,1.23,0,0,1-.42-.07L10.44,18.5a1.28,1.28,0,0,1-.8-1.64,1.29,1.29,0,0,1,1.63-.8l9.53,3.27a1.29,1.29,0,0,1-.42,2.51Z"/><path class="cls-1" d="M20.65,14.42a.73.73,0,0,1-.25,0L6.3,10a.86.86,0,0,1,.51-1.65l14.1,4.39a.86.86,0,0,1,.56,1.08A.85.85,0,0,1,20.65,14.42Z"/><rect class="cls-1" x="4.93" y="25.87" width="2.58" height="2.58" transform="translate(8.36 -0.62) rotate(17.3)"/><path class="cls-1" d="M128,116.23,17.4,111.85a.64.64,0,0,1-.61-.66L21.17.61A.64.64,0,0,1,21.83,0L132.4,4.38A.62.62,0,0,1,133,5l-4.37,110.58A.64.64,0,0,1,128,116.23Zm-109.9-5.62,109.31,4.32L131.72,5.62,22.41,1.29Z"/><path class="cls-2" d="M132.32,114.61,21.71,118.2a1,1,0,0,1-1-.91L17.13,6.67a1,1,0,0,1,.93-1L128.66,2.1a.94.94,0,0,1,1,.92l3.6,110.61A1,1,0,0,1,132.32,114.61ZM22.6,116.27l108.71-3.53L127.77,4,19.07,7.56Z"/><path class="cls-3" d="M122.34,117.9,11.77,113.29a.32.32,0,0,1-.3-.33L16.08,2.39a.33.33,0,0,1,.33-.31L127,6.7a.31.31,0,0,1,.31.33L122.67,117.6A.31.31,0,0,1,122.34,117.9ZM12.12,112.67l109.93,4.58L126.64,7.32,16.7,2.73Z"/></g></g></svg>