<svg xmlns="http://www.w3.org/2000/svg" viewBox="0 0 133.15 143.32"><defs><style>.cls-1{fill:#24c6dc;}.cls-2{fill:#514a9d;}.cls-3{fill:#3a8abd;}</style></defs><g id="Layer_2" data-name="Layer 2"><g id="OBJECTS"><path class="cls-1" d="M39.58,129.31a.39.39,0,0,1,.3.13.43.43,0,0,1,0,.61L26.73,143.19a.43.43,0,0,1-.61,0,.43.43,0,0,1,0-.6l13.15-13.15A.43.43,0,0,1,39.58,129.31Z"/><path class="cls-1" d="M33.93,125.09a1.29,1.29,0,0,1,.91,2.2L29.15,133a1.29,1.29,0,0,1-1.82-1.82L33,125.47A1.29,1.29,0,0,1,33.93,125.09Z"/><path class="cls-1" d="M28.83,121.48a.85.85,0,0,1,.61.25.88.88,0,0,1,0,1.22l-9.94,9.94a.86.86,0,0,1-1.22-1.22l9.94-9.94A.85.85,0,0,1,28.83,121.48Z"/><path class="cls-1" d="M90,14a.39.39,0,0,1-.3-.13.43.43,0,0,1,0-.61L102.8.13a.42.42,0,0,1,.6,0,.42.42,0,0,1,0,.6L90.26,13.88A.43.43,0,0,1,90,14Z"/><path class="cls-1" d="M95.6,18.23a1.29,1.29,0,0,1-.91-2.2l5.69-5.69a1.29,1.29,0,0,1,1.82,1.82l-5.69,5.69A1.29,1.29,0,0,1,95.6,18.23Z"/><path class="cls-1" d="M100.7,21.84a.85.85,0,0,1-.61-.25.88.88,0,0,1,0-1.22L110,10.43a.86.86,0,1,1,1.22,1.22l-9.94,9.94A.85.85,0,0,1,100.7,21.84Z"/><path class="cls-1" d="M42.4,137.6a1.53,1.53,0,1,1-1.53-1.52A1.53,1.53,0,0,1,42.4,137.6Z"/><path class="cls-1" d="M31.42,30.36a1.53,1.53,0,1,1-1.53-1.53A1.53,1.53,0,0,1,31.42,30.36Z"/><path class="cls-1" d="M88.16,6.31a1.53,1.53,0,1,1-1.52-1.53A1.52,1.52,0,0,1,88.16,6.31Z"/><path class="cls-2" d="M63.56,135A63.57,63.57,0,1,1,127.12,71.4,63.63,63.63,0,0,1,63.56,135Zm0-125.17A61.61,61.61,0,1,0,125.17,71.4,61.67,61.67,0,0,0,63.56,9.79Z"/><path class="cls-3" d="M66.23,134.63A63.24,63.24,0,1,1,129.47,71.4,63.3,63.3,0,0,1,66.23,134.63Zm0-125.17A61.94,61.94,0,1,0,128.17,71.4,62,62,0,0,0,66.23,9.46Z"/><path class="cls-1" d="M70.24,134.31A62.91,62.91,0,1,1,133.15,71.4,63,63,0,0,1,70.24,134.31Zm0-125.17A62.26,62.26,0,1,0,132.5,71.4,62.33,62.33,0,0,0,70.24,9.14Z"/></g></g></svg>